<svg width="115" height="111" viewBox="0 0 115 111" fill="none" xmlns="http://www.w3.org/2000/svg">
<g filter="url(#filter0_i)">
<path d="M18.2951 28.3C18.1617 26.4333 17.8617 25.1333 17.3951 24.4C16.9284 23.6667 16.4284 23.0667 15.8951 22.6C15.2951 22.1333 14.5284 21.8667 13.5951 21.8C12.6617 21.6667 11.6617 21.6 10.5951 21.6L10.0951 21.2L9.79506 19.4L9.99506 19C10.4617 19 11.2284 19.0333 12.2951 19.1C13.3617 19.1667 14.4617 19.2333 15.5951 19.3C16.7284 19.3667 17.8284 19.4333 18.8951 19.5C19.9617 19.5667 20.7284 19.6 21.1951 19.6H23.0951C23.5617 19.6 24.3284 19.5667 25.3951 19.5C26.4617 19.4333 27.5617 19.3667 28.6951 19.3C29.8284 19.2333 30.9284 19.1667 31.9951 19.1C33.0617 19.0333 33.8284 19 34.2951 19L34.4951 19.4L34.1951 21.2L33.7951 21.6C32.7284 21.6 31.6951 21.6667 30.6951 21.8C29.7617 21.8667 28.9951 22.1333 28.3951 22.6C27.8617 23.0667 27.3284 23.7 26.7951 24.5C26.3284 25.2333 26.0284 26.5 25.8951 28.3C25.8284 29.2333 25.7617 30.1 25.6951 30.9C25.6951 31.7 25.6951 32.6333 25.6951 33.7C25.6951 34.7667 25.6951 36.0667 25.6951 37.6C25.6951 39.1333 25.6951 41.1 25.6951 43.5V61.9C25.6951 64.2333 25.6951 66.1667 25.6951 67.7C25.6951 69.2333 25.6951 70.5667 25.6951 71.7C25.7617 72.8333 25.8284 73.9 25.8951 74.9C25.9617 75.9 26.0284 77.0333 26.0951 78.3C26.1617 79.5667 26.8617 80.2 28.1951 80.2H36.6951C40.6951 80.2 43.6951 80.1333 45.6951 80C47.7617 79.8 49.2284 79.4333 50.0951 78.9C51.0284 78.3667 51.5951 77.5667 51.7951 76.5C51.9951 75.3667 52.3284 73.9 52.7951 72.1L53.0951 71.7H55.6951L53.8951 84.4L53.0951 85.4C52.7617 85.4 52.1284 85.3667 51.1951 85.3C50.3284 85.3 49.2951 85.2667 48.0951 85.2C46.9617 85.1333 45.7617 85.0667 44.4951 85C43.2951 85 42.2617 85 41.3951 85H21.1951C20.7284 85 19.9617 85.0333 18.8951 85.1C17.8284 85.1667 16.7284 85.2333 15.5951 85.3C14.4617 85.3667 13.3617 85.4333 12.2951 85.5C11.2284 85.5667 10.4617 85.6 9.99506 85.6L9.79506 85.2L10.0951 83.4L10.5951 83C11.6617 83 12.6617 82.9667 13.5951 82.9C14.5284 82.7667 15.2951 82.4667 15.8951 82C16.4284 81.5333 16.9284 80.8667 17.3951 80C17.8617 79.1333 18.1951 77.9 18.3951 76.3C18.4617 75.8333 18.4951 75.3 18.4951 74.7C18.5617 74.0333 18.5951 73.2333 18.5951 72.3C18.5951 71.3667 18.5951 70.2333 18.5951 68.9C18.5951 67.5667 18.5951 65.9 18.5951 63.9V43.6C18.5951 41.2667 18.5951 39.3 18.5951 37.7C18.5951 36.1 18.5617 34.7333 18.4951 33.6C18.4951 32.4667 18.4617 31.5 18.3951 30.7C18.3951 29.9 18.3617 29.1 18.2951 28.3Z" fill="#469A31"/>
<path d="M61.5576 66.5V53.1L67.3576 49.75H79.0076L84.8076 53.1V58.25H79.8076V54.25H66.5576V64.85H79.0076L84.8076 68.2V81.9L79.0076 85.25H66.8576L61.0576 81.9V76.75H66.0576V80.75H79.8076V69.85H67.3576L61.5576 66.5Z" fill="#E00707"/>
</g>
<path d="M0 104H111L104.855 81.2632L111 14H71.594" stroke="#CED130" stroke-width="5"/>
<defs>
<filter id="filter0_i" x="9.79504" y="19" width="75.0125" height="70.6" filterUnits="userSpaceOnUse" color-interpolation-filters="sRGB">
<feFlood flood-opacity="0" result="BackgroundImageFix"/>
<feBlend mode="normal" in="SourceGraphic" in2="BackgroundImageFix" result="shape"/>
<feColorMatrix in="SourceAlpha" type="matrix" values="0 0 0 0 0 0 0 0 0 0 0 0 0 0 0 0 0 0 127 0" result="hardAlpha"/>
<feOffset dy="4"/>
<feGaussianBlur stdDeviation="2"/>
<feComposite in2="hardAlpha" operator="arithmetic" k2="-1" k3="1"/>
<feColorMatrix type="matrix" values="0 0 0 0 0 0 0 0 0 0 0 0 0 0 0 0 0 0 0.25 0"/>
<feBlend mode="normal" in2="shape" result="effect1_innerShadow"/>
</filter>
</defs>
</svg>