<svg width="610" height="111" viewBox="0 0 610 111" fill="none" xmlns="http://www.w3.org/2000/svg">
<g filter="url(#filter0_i)">
<path d="M17.8 28.3C17.6667 26.4333 17.3667 25.1333 16.9 24.4C16.4333 23.6667 15.9333 23.0667 15.4 22.6C14.8 22.1333 14.0333 21.8667 13.1 21.8C12.1667 21.6667 11.1667 21.6 10.1 21.6L9.6 21.2L9.3 19.4L9.5 19C9.96667 19 10.7333 19.0333 11.8 19.1C12.8667 19.1667 13.9667 19.2333 15.1 19.3C16.2333 19.3667 17.3333 19.4333 18.4 19.5C19.4667 19.5667 20.2333 19.6 20.7 19.6H22.6C23.0667 19.6 23.8333 19.5667 24.9 19.5C25.9667 19.4333 27.0667 19.3667 28.2 19.3C29.3333 19.2333 30.4333 19.1667 31.5 19.1C32.5667 19.0333 33.3333 19 33.8 19L34 19.4L33.7 21.2L33.3 21.6C32.2333 21.6 31.2 21.6667 30.2 21.8C29.2667 21.8667 28.5 22.1333 27.9 22.6C27.3667 23.0667 26.8333 23.7 26.3 24.5C25.8333 25.2333 25.5333 26.5 25.4 28.3C25.3333 29.2333 25.2667 30.1 25.2 30.9C25.2 31.7 25.2 32.6333 25.2 33.7C25.2 34.7667 25.2 36.0667 25.2 37.6C25.2 39.1333 25.2 41.1 25.2 43.5V61.9C25.2 64.2333 25.2 66.1667 25.2 67.7C25.2 69.2333 25.2 70.5667 25.2 71.7C25.2667 72.8333 25.3333 73.9 25.4 74.9C25.4667 75.9 25.5333 77.0333 25.6 78.3C25.6667 79.5667 26.3667 80.2 27.7 80.2H36.2C40.2 80.2 43.2 80.1333 45.2 80C47.2667 79.8 48.7333 79.4333 49.6 78.9C50.5333 78.3667 51.1 77.5667 51.3 76.5C51.5 75.3667 51.8333 73.9 52.3 72.1L52.6 71.7H55.2L53.4 84.4L52.6 85.4C52.2667 85.4 51.6333 85.3667 50.7 85.3C49.8333 85.3 48.8 85.2667 47.6 85.2C46.4667 85.1333 45.2667 85.0667 44 85C42.8 85 41.7667 85 40.9 85H20.7C20.2333 85 19.4667 85.0333 18.4 85.1C17.3333 85.1667 16.2333 85.2333 15.1 85.3C13.9667 85.3667 12.8667 85.4333 11.8 85.5C10.7333 85.5667 9.96667 85.6 9.5 85.6L9.3 85.2L9.6 83.4L10.1 83C11.1667 83 12.1667 82.9667 13.1 82.9C14.0333 82.7667 14.8 82.4667 15.4 82C15.9333 81.5333 16.4333 80.8667 16.9 80C17.3667 79.1333 17.7 77.9 17.9 76.3C17.9667 75.8333 18 75.3 18 74.7C18.0667 74.0333 18.1 73.2333 18.1 72.3C18.1 71.3667 18.1 70.2333 18.1 68.9C18.1 67.5667 18.1 65.9 18.1 63.9V43.6C18.1 41.2667 18.1 39.3 18.1 37.7C18.1 36.1 18.0667 34.7333 18 33.6C18 32.4667 17.9667 31.5 17.9 30.7C17.9 29.9 17.8667 29.1 17.8 28.3ZM85.5625 19.4L85.2625 21.2L84.8625 21.6C83.7958 21.6 82.7625 21.6667 81.7625 21.8C80.8292 21.8667 80.0625 22.1333 79.4625 22.6C78.9292 23.0667 78.4292 23.6667 77.9625 24.4C77.4958 25.1333 77.1958 26.4333 77.0625 28.3C76.9958 29.2333 76.9292 30.1 76.8625 30.9C76.8625 31.7 76.8292 32.6333 76.7625 33.7C76.7625 34.7667 76.7625 36.0667 76.7625 37.6C76.7625 39.1333 76.7625 41.1 76.7625 43.5V61.9C76.7625 64.3 76.7625 66.2667 76.7625 67.8C76.7625 69.2667 76.7625 70.5 76.7625 71.5C76.8292 72.5 76.8625 73.3667 76.8625 74.1C76.9292 74.7667 76.9958 75.5 77.0625 76.3C77.1958 78.1667 77.4958 79.4667 77.9625 80.2C78.4292 80.9333 78.9292 81.5333 79.4625 82C80.0625 82.4667 80.8292 82.7667 81.7625 82.9C82.7625 82.9667 83.7958 83 84.8625 83L85.2625 83.4L85.5625 85.2L85.3625 85.6C84.8958 85.6 84.1292 85.5667 83.0625 85.5C81.9958 85.4333 80.8958 85.3667 79.7625 85.3C78.6292 85.2333 77.5292 85.1667 76.4625 85.1C75.3958 85.0333 74.6292 85 74.1625 85H72.2625C71.7958 85 71.0292 85.0333 69.9625 85.1C68.8958 85.1667 67.7958 85.2333 66.6625 85.3C65.5292 85.3667 64.4292 85.4333 63.3625 85.5C62.2958 85.5667 61.5292 85.6 61.0625 85.6L60.8625 85.2L61.1625 83.4L61.6625 83C62.7292 83 63.7292 82.9667 64.6625 82.9C65.5958 82.7667 66.3625 82.4667 66.9625 82C67.4958 81.5333 67.9958 80.9333 68.4625 80.2C68.9958 79.4667 69.3292 78.1667 69.4625 76.3C69.4625 75.8333 69.4625 75.3 69.4625 74.7C69.5292 74.0333 69.5625 73.2333 69.5625 72.3C69.6292 71.3667 69.6625 70.2333 69.6625 68.9C69.6625 67.5667 69.6625 65.9 69.6625 63.9V43.6C69.6625 41.2667 69.6625 39.3 69.6625 37.7C69.6625 36.1 69.6292 34.7333 69.5625 33.6C69.5625 32.4667 69.5292 31.5 69.4625 30.7C69.4625 29.9 69.4292 29.1 69.3625 28.3C69.2292 26.5667 68.9292 25.3 68.4625 24.5C67.9958 23.7 67.4958 23.0667 66.9625 22.6C66.3625 22.1333 65.5958 21.8667 64.6625 21.8C63.7292 21.6667 62.7292 21.6 61.6625 21.6L61.1625 21.2L60.8625 19.4L61.0625 19C61.5292 19 62.2958 19.0333 63.3625 19.1C64.4292 19.1667 65.5292 19.2333 66.6625 19.3C67.7958 19.3667 68.8958 19.4333 69.9625 19.5C71.0292 19.5667 71.7958 19.6 72.2625 19.6H74.1625C74.6292 19.6 75.3958 19.5667 76.4625 19.5C77.5292 19.4333 78.6292 19.3667 79.7625 19.3C80.8958 19.2333 81.9958 19.1667 83.0625 19.1C84.1292 19.0333 84.8958 19 85.3625 19L85.5625 19.4ZM103.663 34.2C103.663 36.0667 103.997 37.6333 104.663 38.9C105.33 40.1 106.33 41.1667 107.663 42.1C109.063 43.0333 110.797 43.9 112.863 44.7C114.997 45.4333 117.497 46.2333 120.363 47.1C122.83 47.9 125.263 48.8 127.663 49.8C130.063 50.8 132.197 52.1 134.063 53.7C135.997 55.2333 137.53 57.1333 138.663 59.4C139.797 61.6 140.363 64.3 140.363 67.5C140.363 70.9 139.697 73.8 138.363 76.2C137.03 78.5333 135.263 80.4333 133.063 81.9C130.863 83.3667 128.297 84.4333 125.363 85.1C122.497 85.7667 119.463 86.1 116.263 86.1C112.13 86.1 108.363 85.6333 104.963 84.7C101.563 83.7667 98.4966 82.6 95.7633 81.2L95.3633 79.9L97.0633 69.2H99.5633L100.063 69.8C100.397 73.8667 102.03 76.8667 104.963 78.8C107.897 80.6667 111.897 81.6 116.963 81.6C122.163 81.6 126.063 80.4333 128.663 78.1C131.33 75.7 132.663 72.6 132.663 68.8C132.663 66.4667 132.163 64.5333 131.163 63C130.163 61.4 128.83 60.0667 127.163 59C125.563 57.8667 123.697 56.9333 121.563 56.2C119.497 55.4667 117.397 54.7333 115.263 54C112.597 53.1333 110.097 52.2 107.763 51.2C105.497 50.1333 103.497 48.9 101.763 47.5C100.097 46.1 98.7633 44.4333 97.7633 42.5C96.8299 40.5667 96.3633 38.2667 96.3633 35.6C96.3633 32.4667 96.8966 29.8333 97.9633 27.7C99.0966 25.5 100.63 23.7333 102.563 22.4C104.497 21 106.73 20 109.263 19.4C111.863 18.8 114.663 18.5 117.663 18.5C121.263 18.5 124.663 18.8333 127.863 19.5C131.063 20.1667 133.663 20.9667 135.663 21.9L136.063 23L134.663 31.9H131.863L131.363 31.4C131.23 29.6667 130.663 28.2667 129.663 27.2C128.663 26.1333 127.463 25.3 126.063 24.7C124.73 24.1 123.263 23.7 121.663 23.5C120.13 23.3 118.763 23.2 117.563 23.2C113.23 23.2 109.83 24.1667 107.363 26.1C104.897 27.9667 103.663 30.6667 103.663 34.2ZM188.041 85.6C187.575 85.6 186.841 85.5667 185.841 85.5C184.841 85.4333 183.775 85.3667 182.641 85.3C181.508 85.2333 180.441 85.1667 179.441 85.1C178.441 85.0333 177.708 85 177.241 85H171.541C171.075 85 170.341 85.0333 169.341 85.1C168.341 85.1667 167.275 85.2333 166.141 85.3C165.075 85.3667 164.041 85.4333 163.041 85.5C162.041 85.5667 161.308 85.6 160.841 85.6L160.641 85.2L160.941 83.4L161.441 83C162.508 83 163.708 82.9667 165.041 82.9C166.375 82.7667 167.308 82.4667 167.841 82C168.375 81.5333 168.941 80.9333 169.541 80.2C170.141 79.4667 170.508 78.1667 170.641 76.3C170.708 75.8333 170.741 75.3 170.741 74.7C170.808 74.0333 170.841 73.2333 170.841 72.3C170.908 71.3667 170.941 70.2333 170.941 68.9C170.941 67.5667 170.941 65.9 170.941 63.9V43.6C170.941 39.2667 170.908 35.4333 170.841 32.1C170.775 28.7 170.708 26.1333 170.641 24.4H169.541C166.208 24.4 163.475 24.4333 161.341 24.5C159.208 24.5 157.475 24.5667 156.141 24.7C154.875 24.7667 153.908 24.8667 153.241 25C152.641 25.1333 152.208 25.3 151.941 25.5C150.475 26.3 149.575 28.0333 149.241 30.7L148.841 31.1H146.541L147.241 19.7L147.641 18.8L148.241 18.5C148.775 18.7 149.941 18.9 151.741 19.1C153.541 19.2333 155.508 19.3333 157.641 19.4C159.775 19.4667 161.808 19.5333 163.741 19.6C165.741 19.6 167.175 19.6 168.041 19.6H180.641C181.508 19.6 182.908 19.6 184.841 19.6C186.841 19.5333 188.908 19.4667 191.041 19.4C193.175 19.3333 195.141 19.2333 196.941 19.1C198.741 18.9 199.908 18.7 200.441 18.5L201.041 18.8L201.441 19.7L202.241 31.1H199.841L199.441 30.7C199.108 28.0333 198.208 26.3 196.741 25.5C196.475 25.3 196.008 25.1333 195.341 25C194.741 24.8667 193.775 24.7667 192.441 24.7C191.175 24.5667 189.475 24.5 187.341 24.5C185.208 24.4333 182.508 24.4 179.241 24.4H178.141C178.075 26.3333 178.008 28.8667 177.941 32C177.941 35.1333 177.941 38.9667 177.941 43.5V61.9C177.941 64.3 177.941 66.2667 177.941 67.8C177.941 69.2667 177.941 70.5 177.941 71.5C178.008 72.5 178.041 73.3667 178.041 74.1C178.108 74.7667 178.175 75.5 178.241 76.3C178.375 78.1667 178.741 79.4667 179.341 80.2C179.941 80.9333 180.508 81.5333 181.041 82C181.575 82.4667 182.508 82.7667 183.841 82.9C185.175 82.9667 186.375 83 187.441 83L187.941 83.4L188.241 85.2L188.041 85.6ZM236.928 19.6C237.795 19.6 239.095 19.6 240.828 19.6C242.628 19.5333 244.428 19.4667 246.228 19.4C248.028 19.3333 249.628 19.3 251.028 19.3C252.495 19.2333 253.395 19.2 253.728 19.2L254.228 20.2L253.828 31.1H251.328L250.928 30.7C250.795 29.1667 250.595 27.9667 250.328 27.1C250.128 26.2333 249.461 25.6 248.328 25.2C247.261 24.8 245.628 24.5667 243.428 24.5C241.228 24.4333 238.128 24.4 234.128 24.4H224.528L224.328 28.3C224.261 29.3667 224.195 30.2667 224.128 31C224.128 31.7333 224.095 32.6333 224.028 33.7C224.028 34.7667 224.028 36.0667 224.028 37.6C224.028 39.0667 224.028 42.6667 224.028 48.4C226.028 48.3333 228.028 48.3 230.028 48.3C232.028 48.3 233.828 48.2667 235.428 48.2C237.095 48.1333 238.495 48 239.628 47.8C240.761 47.5333 241.528 47.1667 241.928 46.7C242.461 46.1667 242.928 45.6333 243.328 45.1C243.728 44.5667 243.928 43.8 243.928 42.8L244.428 42.3L246.128 42.1L246.528 42.3C246.395 43.8333 246.261 45.1667 246.128 46.3C246.061 47.4333 246.028 48.7333 246.028 50.2C246.028 51.8 246.061 53.3 246.128 54.7C246.261 56.0333 246.395 57.5 246.528 59.1L246.128 59.3L244.328 59.1L243.928 58.8C243.928 57.7333 243.728 56.7667 243.328 55.9C242.928 54.9667 242.461 54.2 241.928 53.6C241.528 53.2 240.761 52.9 239.628 52.7C238.495 52.5 237.128 52.3667 235.528 52.3C233.928 52.2333 232.128 52.2 230.128 52.2C228.128 52.2 226.095 52.2 224.028 52.2V61.9C224.028 64.3 224.028 66.2667 224.028 67.8C224.028 69.2667 224.028 70.6 224.028 71.8C224.095 72.9333 224.161 74 224.228 75C224.295 75.9333 224.395 77.0333 224.528 78.3C224.528 79.5667 225.195 80.2 226.528 80.2H235.028C239.028 80.2 242.161 80.1333 244.428 80C246.761 79.8 248.528 79.4333 249.728 78.9C250.928 78.3667 251.761 77.5667 252.228 76.5C252.761 75.3667 253.261 73.9 253.728 72.1L254.128 71.7H256.728L254.928 84.4L254.128 85.4C253.795 85.4 253.028 85.3667 251.828 85.3C250.628 85.3 249.261 85.2667 247.728 85.2C246.261 85.1333 244.761 85.0667 243.228 85C241.761 85 240.595 85 239.728 85H219.528C219.061 85 218.295 85.0333 217.228 85.1C216.161 85.1667 215.061 85.2333 213.928 85.3C212.795 85.3667 211.695 85.4333 210.628 85.5C209.561 85.5667 208.795 85.6 208.328 85.6L208.128 85.2L208.428 83.4L208.928 83C209.995 83 210.995 82.9667 211.928 82.9C212.861 82.7667 213.628 82.4667 214.228 82C214.761 81.5333 215.261 80.9333 215.728 80.2C216.261 79.4667 216.595 78.1667 216.728 76.3C216.728 75.8333 216.728 75.3 216.728 74.7C216.795 74.0333 216.828 73.2333 216.828 72.3C216.895 71.3667 216.928 70.2333 216.928 68.9C216.928 67.5667 216.928 65.9 216.928 63.9V43.6C216.928 41.2667 216.928 39.3 216.928 37.7C216.928 36.1 216.928 34.7333 216.928 33.6C216.928 32.4667 216.895 31.5 216.828 30.7C216.828 29.9 216.795 29.1 216.728 28.3C216.595 26.5 216.261 25.2333 215.728 24.5C215.261 23.7 214.761 23.0667 214.228 22.6C213.628 22.1333 212.861 21.8667 211.928 21.8C210.995 21.6667 209.995 21.6 208.928 21.6L208.428 21.2L208.128 19.4L208.328 19C208.795 19 209.561 19.0333 210.628 19.1C211.695 19.1667 212.828 19.2333 214.028 19.3C215.295 19.3667 216.495 19.4333 217.628 19.5C218.828 19.5667 219.795 19.6 220.528 19.6H236.928ZM331.757 19.4L331.557 21.2L331.057 21.6C329.99 21.6 328.957 21.6667 327.957 21.8C327.024 21.8667 326.29 22.1333 325.757 22.6C325.224 23.0667 324.724 23.6667 324.257 24.4C323.857 25.1333 323.59 26.4333 323.457 28.3C323.39 29.2333 323.324 30.1 323.257 30.9C323.257 31.7 323.224 32.6333 323.157 33.7C323.157 34.7667 323.157 36.0667 323.157 37.6C323.157 39.1333 323.157 41.1 323.157 43.5V61.1C323.157 64.8333 323.157 67.9 323.157 70.3C323.224 72.7 323.257 74.7667 323.257 76.5C323.324 78.1667 323.39 79.6667 323.457 81C323.59 82.3333 323.724 83.8 323.857 85.4L323.057 85.9L316.857 85.5L315.857 84.3L280.257 31C280.257 31.6667 280.224 32.3333 280.157 33C280.157 33.6667 280.157 34.5 280.157 35.5C280.157 36.4333 280.157 37.5333 280.157 38.8C280.157 40.0667 280.157 41.6333 280.157 43.5V61.9C280.157 62.7 280.157 63.7667 280.157 65.1C280.157 66.3667 280.157 67.7 280.157 69.1C280.224 70.5 280.257 71.8667 280.257 73.2C280.324 74.4667 280.39 75.5 280.457 76.3C280.59 77.9667 280.857 79.2333 281.257 80.1C281.724 80.9 282.29 81.5333 282.957 82C283.49 82.4 284.19 82.6667 285.057 82.8C285.924 82.9333 287.024 83 288.357 83L288.857 83.4L289.157 85.2L288.957 85.6C288.49 85.6 287.757 85.5667 286.757 85.5C285.824 85.4333 284.824 85.3667 283.757 85.3C282.69 85.2333 281.657 85.1667 280.657 85.1C279.724 85.0333 279.024 85 278.557 85H276.657C276.19 85 275.424 85.0333 274.357 85.1C273.29 85.1667 272.19 85.2333 271.057 85.3C269.924 85.3667 268.824 85.4333 267.757 85.5C266.69 85.5667 265.924 85.6 265.457 85.6L265.257 85.2L265.557 83.4L266.057 83C267.257 83 268.257 82.9667 269.057 82.9C269.924 82.7667 270.69 82.4667 271.357 82C271.824 81.6667 272.29 81.1333 272.757 80.4C273.29 79.6 273.657 78.2333 273.857 76.3C273.924 75.8333 273.957 75.3 273.957 74.7C274.024 74.0333 274.057 73.2333 274.057 72.3C274.057 71.3667 274.057 70.2333 274.057 68.9C274.057 67.5667 274.057 65.9 274.057 63.9V43.6C274.057 41.2667 274.057 39.3 274.057 37.7C274.057 36.1 274.057 34.7333 274.057 33.6C274.057 32.4667 274.024 31.5 273.957 30.7C273.957 29.9 273.924 29.1 273.857 28.3C273.724 26.9 273.424 25.7333 272.957 24.8C272.49 23.8 271.957 23.0667 271.357 22.6C270.757 22.1333 269.99 21.8667 269.057 21.8C268.19 21.6667 267.19 21.6 266.057 21.6L265.557 21.2L265.257 19.4L265.457 19C265.924 19 266.59 19.0333 267.457 19.1C268.39 19.1667 269.324 19.2333 270.257 19.3C271.19 19.3667 272.09 19.4333 272.957 19.5C273.89 19.5667 274.59 19.6 275.057 19.6H278.557C279.09 19.6 279.824 19.5667 280.757 19.5C281.757 19.4333 282.557 19.3333 283.157 19.2L283.657 19.5C283.924 20.4333 284.457 21.7333 285.257 23.4C286.124 25 287.124 26.8 288.257 28.8C289.457 30.8 290.724 32.9333 292.057 35.2C293.457 37.4667 294.857 39.7 296.257 41.9C301.324 50.0333 305.724 56.6667 309.457 61.8C313.257 66.9333 315.69 70.2667 316.757 71.8C316.757 71.3333 316.757 70.9 316.757 70.5C316.824 70.1 316.857 69.6333 316.857 69.1C316.857 68.5667 316.857 67.9 316.857 67.1C316.857 66.3 316.857 65.2333 316.857 63.9V43.6C316.857 41.2667 316.857 39.3 316.857 37.7C316.857 36.1 316.824 34.7333 316.757 33.6C316.757 32.4667 316.724 31.5 316.657 30.7C316.657 29.9 316.624 29.1 316.557 28.3C316.424 26.4333 316.124 25.1333 315.657 24.4C315.19 23.6667 314.69 23.0667 314.157 22.6C313.557 22.1333 312.757 21.8667 311.757 21.8C310.824 21.6667 309.824 21.6 308.757 21.6L308.357 21.2L308.057 19.4L308.257 19C308.724 19 309.39 19.0333 310.257 19.1C311.124 19.1667 311.99 19.2333 312.857 19.3C313.79 19.3667 314.69 19.4333 315.557 19.5C316.424 19.5667 317.09 19.6 317.557 19.6H322.257C322.724 19.6 323.39 19.6 324.257 19.6C325.124 19.5333 326.024 19.4667 326.957 19.4C327.89 19.3333 328.79 19.2667 329.657 19.2C330.524 19.1333 331.19 19.0667 331.657 19L331.757 19.4Z" fill="#469A31"/>
<path d="M340.066 66.5V53.1L345.866 49.75H357.516L363.316 53.1V58.25H358.316V54.25H345.066V64.85H357.516L363.316 68.2V81.9L357.516 85.25H345.366L339.566 81.9V76.75H344.566V80.75H358.316V69.85H345.866L340.066 66.5ZM398.543 81.9L392.743 85.25H378.093L372.293 81.9V53.1L378.093 49.75H392.743L398.543 53.1V81.9ZM377.293 54.25V80.75H393.543V54.25H377.293ZM428.797 50H433.797V81.9L427.997 85.25H413.347L407.547 81.9V50H412.547V80.25H428.797V50ZM455.351 71.05H447.801V85H442.801V50H460.751L466.551 53.35V67.7L460.751 71.05L468.801 85H463.251L455.351 71.05ZM447.801 54.5V66.55H461.551V54.5H447.801ZM495.314 76.25H500.314V81.9L494.514 85.25H481.364L475.564 81.9V53.1L481.364 49.75H494.514L500.314 53.1V58.75H495.314V54.25H480.564V80.75H495.314V76.25ZM513.816 69.25V80.5H528.766V85H508.816V50H528.766V54.5H513.816V64.75H525.766V69.25H513.816ZM535.77 66.5V53.1L541.57 49.75H553.22L559.02 53.1V58.25H554.02V54.25H540.77V64.85H553.22L559.02 68.2V81.9L553.22 85.25H541.07L535.27 81.9V76.75H540.27V80.75H554.02V69.85H541.57L535.77 66.5Z" fill="#E00707"/>
</g>
<path d="M0 104H601L567.728 81.2632L601 14H387.64" stroke="#CED130" stroke-width="5"/>
<defs>
<filter id="filter0_i" x="9.29999" y="18.5" width="549.72" height="71.6" filterUnits="userSpaceOnUse" color-interpolation-filters="sRGB">
<feFlood flood-opacity="0" result="BackgroundImageFix"/>
<feBlend mode="normal" in="SourceGraphic" in2="BackgroundImageFix" result="shape"/>
<feColorMatrix in="SourceAlpha" type="matrix" values="0 0 0 0 0 0 0 0 0 0 0 0 0 0 0 0 0 0 127 0" result="hardAlpha"/>
<feOffset dy="4"/>
<feGaussianBlur stdDeviation="2"/>
<feComposite in2="hardAlpha" operator="arithmetic" k2="-1" k3="1"/>
<feColorMatrix type="matrix" values="0 0 0 0 0 0 0 0 0 0 0 0 0 0 0 0 0 0 0.25 0"/>
<feBlend mode="normal" in2="shape" result="effect1_innerShadow"/>
</filter>
</defs>
</svg>